<svg width="181" height="40" viewBox="0 0 181 40" fill="none" xmlns="http://www.w3.org/2000/svg">
<path d="M43.5169 16.459L35.9094 3.44106C34.6609 1.30274 32.3616 -0.00890766 29.8796 4.5544e-05L14.7693 0.0567499C12.2873 0.0671953 9.99847 1.39525 8.76498 3.54402L1.25772 16.6172C0.0242257 18.7645 0.0347033 21.4042 1.28467 23.541L8.88773 36.5589C10.1362 38.6973 12.4355 40.0089 14.9175 40L30.0338 39.9433C32.5158 39.9343 34.8046 38.6062 36.0366 36.4575L43.5424 23.3858C44.7759 21.2385 44.7654 18.5973 43.5169 16.459Z" fill="#0047AB"/>
<path d="M22.0999 26.5075C19.7691 27.0343 17.7617 25.9077 16.9549 23.6724C16.654 23.7246 16.3426 23.7709 16.0372 23.8335C15.2139 24.0051 14.3935 24.1857 13.5717 24.3558C13.1825 24.4588 12.7678 24.3349 12.4984 24.0365C12.217 23.7619 12.1122 23.3545 12.2289 22.98C12.6391 21.5922 13.0134 20.1911 13.4894 18.8272C13.8966 17.6588 14.7798 16.9411 16.0073 16.6844C16.6091 16.5591 17.2198 16.4636 17.8276 16.3681C17.9952 16.3516 18.1404 16.2457 18.2063 16.092C19.7557 13.0196 22.2152 10.8797 25.251 9.34725C26.3094 8.81304 27.4006 8.3624 28.5982 8.20572C28.8632 8.13111 29.1386 8.28331 29.215 8.54594C29.6536 9.52034 29.8377 10.55 29.9515 11.5975C30.2523 14.3536 29.9515 17.0306 28.8886 19.5987C28.5982 20.2418 28.2749 20.87 27.9186 21.4788C27.8198 21.6236 27.8048 21.8071 27.8767 21.9668C28.0967 22.4906 28.2928 23.0233 28.5009 23.5515C29.0293 24.899 28.8123 26.1181 27.8707 27.2119C27.0039 28.2176 26.1417 29.2263 25.269 30.2276C24.6777 30.9051 23.6762 30.7141 23.3573 29.8665C22.9801 28.8637 22.6104 27.8595 22.2361 26.8567C22.1942 26.7433 22.1508 26.6329 22.1014 26.5075H22.0999Z" fill="white"/>
<path d="M15.5986 28.7577C15.2842 28.8562 15.0208 28.9427 14.7543 29.0233C14.5358 29.1069 14.2888 29.0322 14.154 28.8427C13.9984 28.6592 13.9804 28.3951 14.1121 28.1921C14.5148 27.4804 14.907 26.7626 15.3157 26.0553C15.4609 25.7867 15.7977 25.6853 16.0672 25.83C16.1495 25.8748 16.2199 25.9389 16.2708 26.0165C17.1974 27.3968 18.7273 28.2533 20.3904 28.3264C20.6958 28.322 20.9457 28.5652 20.9502 28.8696C20.9502 28.977 20.9218 29.0815 20.8649 29.171C20.4727 29.8992 20.0626 30.617 19.6554 31.3362C19.5461 31.5421 19.3156 31.6511 19.0865 31.6048C18.8635 31.5884 18.6794 31.4227 18.6404 31.2034C18.5776 30.9318 18.5267 30.6572 18.4593 30.326C18.2752 30.4334 18.1809 30.4827 18.0926 30.5424C17.5432 30.9079 16.9923 31.2735 16.4489 31.6466C16.2408 31.7898 16.0297 31.863 15.7962 31.7361C15.5762 31.6167 15.4549 31.372 15.4953 31.1258C15.5372 30.3663 15.5627 29.6053 15.6001 28.7562L15.5986 28.7577Z" fill="white"/>
<path d="M57.1468 29.3093C57.1468 29.8676 56.9383 30.3401 56.5214 30.7266C56.1045 31.0917 55.6217 31.2742 55.0731 31.2742C54.4587 31.2742 53.965 31.0917 53.5919 30.7266C53.2189 30.3401 53.0324 29.8676 53.0324 29.3093V10.6907C53.0324 10.1324 53.2299 9.67066 53.6248 9.30559C54.0198 8.91905 54.5245 8.72577 55.139 8.72577C55.6656 8.72577 56.1264 8.91905 56.5214 9.30559C56.9383 9.67066 57.1468 10.1324 57.1468 10.6907V29.3093Z" fill="#191919"/>
<path d="M79.5751 8.72577C80.1018 8.72577 80.5297 8.89757 80.8588 9.24117C81.188 9.58476 81.3526 10.0143 81.3526 10.5296V29.3093C81.3526 29.8676 81.1551 30.3401 80.7601 30.7266C80.3871 31.0917 79.9153 31.2742 79.3447 31.2742C79.0595 31.2742 78.7632 31.2313 78.456 31.1454C78.1707 31.038 77.9513 30.8984 77.7977 30.7266L64.8619 14.6528L65.7177 14.1374V29.4704C65.7177 29.9857 65.5421 30.4152 65.191 30.7588C64.8619 31.1024 64.423 31.2742 63.8744 31.2742C63.3478 31.2742 62.9199 31.1024 62.5907 30.7588C62.2616 30.4152 62.097 29.9857 62.097 29.4704V10.6907C62.097 10.1324 62.2835 9.67066 62.6566 9.30559C63.0515 8.91905 63.5343 8.72577 64.1048 8.72577C64.412 8.72577 64.7302 8.7902 65.0594 8.91905C65.3885 9.02642 65.6299 9.19822 65.7835 9.43444L78.3243 25.0895L77.7648 25.4761V10.5296C77.7648 10.0143 77.9294 9.58476 78.2585 9.24117C78.5877 8.89757 79.0265 8.72577 79.5751 8.72577Z" fill="#191919"/>
<path d="M88.3751 31.2742C87.7607 31.2742 87.256 31.0917 86.861 30.7266C86.488 30.3401 86.3015 29.8676 86.3015 29.3093V10.6907C86.3015 10.1324 86.488 9.67066 86.861 9.30559C87.256 8.91905 87.7388 8.72577 88.3093 8.72577H99.0069C99.5774 8.72577 100.049 8.90831 100.422 9.27338C100.817 9.61697 101.015 10.0679 101.015 10.6263C101.015 11.0987 100.817 11.5175 100.422 11.8826C100.049 12.2476 99.5774 12.4302 99.0069 12.4302H90.1197L90.4159 12.0436V18.5182L90.1855 18.0995H97.5257C98.0962 18.0995 98.568 18.282 98.941 18.6471C99.336 18.9907 99.5335 19.4417 99.5335 20C99.5335 20.4724 99.336 20.8912 98.941 21.2563C98.568 21.6213 98.0962 21.8039 97.5257 21.8039H90.1197L90.4159 21.514V29.3093C90.4159 29.8676 90.2074 30.3401 89.7905 30.7266C89.3955 31.0917 88.9237 31.2742 88.3751 31.2742Z" fill="#191919"/>
<path d="M108.899 29.3093C108.899 29.8676 108.69 30.3401 108.273 30.7266C107.856 31.0917 107.374 31.2742 106.825 31.2742C106.211 31.2742 105.717 31.0917 105.344 30.7266C104.971 30.3401 104.784 29.8676 104.784 29.3093V10.6907C104.784 10.1324 104.982 9.67066 105.377 9.30559C105.772 8.91905 106.276 8.72577 106.891 8.72577C107.418 8.72577 107.878 8.91905 108.273 9.30559C108.69 9.67066 108.899 10.1324 108.899 10.6907V29.3093Z" fill="#191919"/>
<path d="M124.711 31.5964C123.043 31.5964 121.485 31.2957 120.037 30.6944C118.589 30.0931 117.316 29.2663 116.219 28.2141C115.122 27.1403 114.255 25.9055 113.619 24.5097C113.004 23.1138 112.697 21.6106 112.697 20C112.697 18.3894 113.004 16.8862 113.619 15.4903C114.255 14.0945 115.122 12.8704 116.219 11.8181C117.316 10.7444 118.589 9.90688 120.037 9.30559C121.485 8.7043 123.043 8.40365 124.711 8.40365C125.742 8.40365 126.741 8.51103 127.706 8.72577C128.672 8.94052 129.561 9.26264 130.373 9.69214C130.702 9.86393 130.943 10.1002 131.097 10.4008C131.272 10.68 131.36 10.9699 131.36 11.2705C131.36 11.7859 131.184 12.2476 130.833 12.6556C130.482 13.0637 130.032 13.2677 129.484 13.2677C129.308 13.2677 129.122 13.2462 128.924 13.2033C128.749 13.1603 128.573 13.0959 128.398 13.01C127.849 12.7738 127.267 12.5912 126.653 12.4624C126.039 12.3335 125.391 12.2691 124.711 12.2691C123.285 12.2691 121.979 12.6234 120.794 13.3321C119.631 14.0193 118.698 14.9534 117.996 16.1346C117.316 17.2942 116.976 18.5827 116.976 20C116.976 21.3959 117.316 22.6843 117.996 23.8654C118.698 25.0466 119.631 25.9914 120.794 26.7001C121.979 27.3873 123.285 27.7309 124.711 27.7309C125.369 27.7309 126.094 27.6665 126.883 27.5376C127.673 27.4088 128.321 27.237 128.826 27.0222L128.529 27.9886V22.4803L129.089 22.9635H125.435C124.865 22.9635 124.382 22.781 123.987 22.4159C123.614 22.0508 123.427 21.5891 123.427 21.0308C123.427 20.4724 123.614 20.0107 123.987 19.6457C124.382 19.2806 124.865 19.0981 125.435 19.0981H130.833C131.404 19.0981 131.876 19.2913 132.249 19.6779C132.622 20.0429 132.808 20.5047 132.808 21.063V27.892C132.808 28.3215 132.699 28.6758 132.479 28.955C132.282 29.2341 132.051 29.4596 131.788 29.6314C130.778 30.2327 129.67 30.7159 128.463 31.081C127.278 31.4246 126.028 31.5964 124.711 31.5964Z" fill="#191919"/>
<path d="M157.965 20C157.965 21.6106 157.691 23.1138 157.142 24.5097C156.594 25.9055 155.815 27.1403 154.805 28.2141C153.818 29.2663 152.633 30.0931 151.25 30.6944C149.89 31.2957 148.398 31.5964 146.774 31.5964C145.15 31.5964 143.658 31.2957 142.297 30.6944C140.937 30.0931 139.752 29.2663 138.743 28.2141C137.755 27.1403 136.987 25.9055 136.438 24.5097C135.89 23.1138 135.616 21.6106 135.616 20C135.616 18.3894 135.89 16.8862 136.438 15.4903C136.987 14.0945 137.755 12.8704 138.743 11.8181C139.752 10.7444 140.937 9.90688 142.297 9.30559C143.658 8.7043 145.15 8.40365 146.774 8.40365C148.398 8.40365 149.89 8.7043 151.25 9.30559C152.633 9.90688 153.818 10.7444 154.805 11.8181C155.815 12.8704 156.594 14.0945 157.142 15.4903C157.691 16.8862 157.965 18.3894 157.965 20ZM153.686 20C153.686 18.5612 153.39 17.262 152.798 16.1023C152.205 14.9212 151.393 13.9871 150.362 13.2999C149.33 12.6127 148.134 12.2691 146.774 12.2691C145.413 12.2691 144.218 12.6127 143.186 13.2999C142.155 13.9871 141.343 14.9105 140.75 16.0701C140.18 17.2298 139.895 18.5397 139.895 20C139.895 21.4388 140.18 22.7488 140.75 23.9299C141.343 25.0895 142.155 26.0129 143.186 26.7001C144.218 27.3873 145.413 27.7309 146.774 27.7309C148.134 27.7309 149.33 27.3873 150.362 26.7001C151.393 26.0129 152.205 25.0895 152.798 23.9299C153.39 22.7488 153.686 21.4388 153.686 20Z" fill="#191919"/>
<path d="M179.222 8.72577C179.748 8.72577 180.176 8.89757 180.505 9.24117C180.835 9.58476 180.999 10.0143 180.999 10.5296V29.3093C180.999 29.8676 180.802 30.3401 180.407 30.7266C180.034 31.0917 179.562 31.2742 178.991 31.2742C178.706 31.2742 178.41 31.2313 178.103 31.1454C177.817 31.038 177.598 30.8984 177.444 30.7266L164.508 14.6528L165.364 14.1374V29.4704C165.364 29.9857 165.189 30.4152 164.838 30.7588C164.508 31.1024 164.07 31.2742 163.521 31.2742C162.994 31.2742 162.566 31.1024 162.237 30.7588C161.908 30.4152 161.744 29.9857 161.744 29.4704V10.6907C161.744 10.1324 161.93 9.67066 162.303 9.30559C162.698 8.91905 163.181 8.72577 163.751 8.72577C164.059 8.72577 164.377 8.7902 164.706 8.91905C165.035 9.02642 165.277 9.19822 165.43 9.43444L177.971 25.0895L177.411 25.4761V10.5296C177.411 10.0143 177.576 9.58476 177.905 9.24117C178.234 8.89757 178.673 8.72577 179.222 8.72577Z" fill="#191919"/>
</svg>
